<svg aria-hidden="true" style="position: absolute; width: 0; height: 0; overflow: hidden;" version="1.1" xmlns="http://www.w3.org/2000/svg" xmlns:xlink="http://www.w3.org/1999/xlink">
<defs>
    <symbol id="icon-agile" viewBox="0 0 24 24">
        <title>agile</title>
    <path d="m63.601 48-12.601-10.081v6.081h-9.012c1.635-2.176 2.818-4.657 3.455-7.306l3.557-.92v-7.553l-3.552-.899c-.487-2.028-1.29-3.959-2.395-5.758l1.882-3.157-5.344-5.343-3.157 1.881c-1.798-1.104-3.729-1.908-5.757-2.395l-.899-3.55h-7.557l-.899 3.552c-2.028.487-3.959 1.29-5.757 2.395l-3.157-1.881-5.344 5.343 1.882 3.157c-1.104 1.798-1.908 3.73-2.395 5.758l-3.551.898v7.555l3.554.907c.65 2.708 1.856 5.18 3.469 7.316h-9.023v8h25 25v6.081zm-60.601 2v-4h8.762c1.617 1.638 3.504 2.994 5.585 4zm23 0c-8.495 0-15.907-6.029-17.625-14.335l-.127-.612-3.248-.83v-4.445l3.246-.821.127-.614c.456-2.208 1.325-4.298 2.583-6.212l.344-.523-1.72-2.886 3.142-3.142 2.886 1.721.523-.344c1.914-1.258 4.004-2.127 6.212-2.583l.614-.127.821-3.247h4.443l.821 3.246.614.127c2.208.456 4.298 1.325 6.212 2.583l.523.344 2.886-1.721 3.142 3.142-1.72 2.886.344.523c1.258 1.914 2.127 4.004 2.583 6.212l.127.614 3.247.822v4.447l-3.251.841-.126.609c-.643 3.096-2.103 5.961-4.22 8.324h-6.228c4.08-2.448 6.825-6.903 6.825-11.999 0-7.72-6.28-14-14-14s-14 6.28-14 14 6.28 14 14 14h27v-3.919l7.399 5.919-7.399 5.919v-3.919zm0-6c-6.617 0-12-5.383-12-12s5.383-12 12-12 12 5.383 12 12-5.383 12-12 12z"/>
    <path d="m18.571 29.023-1.857-.742c-.275.688-.473 1.407-.59 2.137l1.976.314c.092-.583.251-1.158.471-1.709z"/><path d="m18.016 32.507-1.996.123c.046.741.174 1.476.383 2.186l1.919-.562c-.166-.567-.269-1.155-.306-1.747z"/><path d="m17.26 36.862c.361.647.794 1.254 1.287 1.805l1.49-1.334c-.395-.441-.742-.927-1.03-1.445z"/><path d="m29 32c0-1.302-.839-2.402-2-2.816v-7.184h-2v7.184c-1.161.414-2 1.514-2 2.816 0 1.654 1.346 3 3 3 .462 0 .894-.113 1.285-.301l3.008 3.008 1.414-1.414-3.008-3.008c.188-.391.301-.823.301-1.285zm-3 1c-.551 0-1-.449-1-1s.449-1 1-1 1 .449 1 1-.449 1-1 1z"/>
    </symbol>
<symbol id="icon-browser" viewBox="0 0 24 24">
<title>browser</title>
<path d="M0 1v22h24v-22h-24zM22 21h-20v-13h20v13zM22 7h-20v-4h20v4zM11 4h-2v2h2v-2zM8 4h-2v2h2v-2zM5 4h-2v2h2v-2z"></path>
</symbol>
<symbol id="icon-windows" viewBox="0 0 24 24">
<title>windows</title>
<path d="M3 1v3h-3v19h21v-3h3v-19h-21zM19 21h-17v-15h1v14h16v1zM22 18h-17v-10h17v10zM22 7h-17v-4h17v4zM14 4h-2v2h2v-2zM11 4h-2v2h2v-2zM8 4h-2v2h2v-2z"></path>
</symbol>
<symbol id="icon-window" viewBox="0 0 24 24">
<title>window</title>
<path d="M0 1v22h24v-22h-24zM22 21h-20v-13h20v13zM22 7h-20v-4h20v4zM11 4h-2v2h2v-2zM8 4h-2v2h2v-2zM5 4h-2v2h2v-2zM9.025 17.889l2.475-2.475 2.475 2.475 1.414-1.414-2.475-2.475 2.475-2.475-1.414-1.414-2.475 2.475-2.475-2.475-1.414 1.414 2.475 2.475-2.475 2.475 1.414 1.414z"></path>
</symbol>
<symbol id="icon-settings" viewBox="0 0 24 24">
<title>settings</title>
<path d="M9.998 8.498c2.039 0 3.702 1.531 3.95 3.502h3.516c-0.033-0.472-0.097-0.935-0.212-1.379l2.841-1.64-2.001-3.466-2.837 1.638c-0.895-0.881-2.010-1.532-3.255-1.877v-3.278h-4.002v3.278c-1.245 0.344-2.361 0.996-3.256 1.876l-2.836-1.637-2.001 3.466 2.839 1.639c-0.155 0.602-0.247 1.228-0.247 1.878s0.091 1.277 0.247 1.878l-2.839 1.64 2.001 3.465 2.835-1.637c0.895 0.881 2.012 1.532 3.257 1.876v3.278h4.002v-7.055c-0.591 0.344-1.269 0.556-2.002 0.556-2.209 0-4-1.791-4-4s1.791-4.001 4-4.001zM22.998 18c0-0.37-0.066-0.722-0.161-1.062l1.857-1.072-0.999-1.73-1.844 1.064c-0.501-0.51-1.14-0.875-1.853-1.061v-2.139h-1.998v2.139c-0.715 0.184-1.354 0.549-1.856 1.060l-1.841-1.063-0.999 1.73 1.853 1.069c-0.095 0.342-0.162 0.694-0.162 1.065s0.067 0.724 0.162 1.065l-1.853 1.069 0.999 1.73 1.841-1.063c0.502 0.511 1.142 0.876 1.856 1.060v2.139h1.998v-2.14c0.713-0.186 1.352-0.551 1.853-1.061l1.845 1.065 0.999-1.73-1.857-1.072c0.094-0.34 0.16-0.692 0.16-1.062zM18.996 19.998c-1.104 0-1.998-0.895-1.998-1.998s0.895-1.998 1.998-1.998 1.998 0.895 1.998 1.998-0.894 1.998-1.998 1.998z"></path>
</symbol>
<symbol id="icon-share" viewBox="0 0 24 24">
<title>share</title>
<path d="M20 16c-1.2 0-2.266 0.542-3 1.382l-7.324-3.662c0.199-0.538 0.324-1.113 0.324-1.72s-0.125-1.182-0.324-1.72l7.324-3.662c0.734 0.84 1.8 1.382 3 1.382 2.206 0 4-1.795 4-4s-1.794-4-4-4-4 1.795-4 4c0 0.287 0.033 0.566 0.091 0.836l-7.47 3.735c0.003 0.003 0.004 0.007 0.007 0.009-0.912-0.967-2.196-1.58-3.628-1.58-2.757 0-5 2.243-5 5s2.243 5 5 5c1.432 0 2.716-0.613 3.628-1.58-0.003 0.002-0.004 0.006-0.007 0.009l7.47 3.735c-0.058 0.27-0.091 0.549-0.091 0.836 0 2.205 1.794 4 4 4s4-1.795 4-4-1.794-4-4-4zM20 2c1.103 0 2 0.896 2 2s-0.897 2-2 2-2-0.896-2-2 0.897-2 2-2zM5 15c-1.654 0-3-1.346-3-3s1.346-3 3-3 3 1.346 3 3-1.346 3-3 3zM20 22c-1.103 0-2-0.896-2-2s0.897-2 2-2 2 0.896 2 2-0.897 2-2 2z"></path>
</symbol>
<symbol id="icon-tablet-landscape" viewBox="0 0 24 24">
<title>tablet-landscape</title>
<path d="M23 19v-14c0-1.1-0.9-2-2-2h-18c-1.1 0-2 0.9-2 2v14c0 1.1 0.9 2 2 2h18c1.1 0 2-0.9 2-2zM2 13v-2h2v2h-2zM5 19v-14h16v14h-16z"></path>
</symbol>
<symbol id="icon-microwaveoven" viewBox="0 0 24 24">
<title>microwaveoven</title>
<path d="M21 3h-18c-1.654 0-3 1.346-3 3v11c0 1.654 1.346 3 3 3h1l1 2h1l1-2h10l1 2h1l1-2h1c1.654 0 3-1.346 3-3v-11c0-1.654-1.346-3-3-3zM22 17c0 0.552-0.449 1-1 1h-18c-0.551 0-1-0.448-1-1v-11c0-0.551 0.449-1 1-1h18c0.551 0 1 0.449 1 1v11zM3 17h15v-11h-15v11zM4 7h13v9h-13v-9zM19 7h1v1h-1zM20 8h1v1h-1zM19 9h1v1h-1zM20 10h1v1h-1zM19 13h2v1h-2zM19 15h2v1h-2z"></path>
</symbol>
<symbol id="icon-creditcards" viewBox="0 0 24 24">
<title>creditcards</title>
<path d="M22 7h-2v-0.59c0-1.101-0.896-2.41-2-2.41h-16c-1.104 0-2 1.309-2 2.41v9c0 1.104 0.896 1.59 2 1.59h1v2.41c0 1.104 0.896 1.59 2 1.59h17c1.104 0 2-0.486 2-1.59v-10c0-1.101-0.896-2.41-2-2.41zM3 15h-1v-4h1v4zM3.278 8h-1.278v-2h16v1h-13c-0.736 0-1.375 1-1.722 1zM5 19v-10h17l0.002 10h-17.002zM16 16h5v-4h-5v4zM17 13h3v2h-3v-2zM8 18h4v-1h-4v1zM6 12h7v-2h-7v2zM13.002 18h0.996v-1h-0.996v1zM6 18h0.996v-1h-0.996v1z"></path>
</symbol>
<symbol id="icon-vcard" viewBox="0 0 24 24">
<title>vcard</title>
<path d="M11 8h-7v8h7v-8zM10 14.501c0-0.828-1.119-1.499-2.5-1.499s-2.5 0.671-2.5 1.499v-5.501h5v5.501zM6 11.502c0 0.828 0.672 1.5 1.5 1.5s1.5-0.672 1.5-1.5c0-0.828-0.672-1.5-1.5-1.5s-1.5 0.672-1.5 1.5zM21.929 4h-20c-1.105 0-1.929 0.807-1.929 1.91v12c0 1.106 0.824 2.090 1.929 2.090h20c1.104 0 2.071-0.984 2.071-2.090v-12c0-1.103-0.967-1.91-2.071-1.91zM22 18h-20v-12h20v12zM13 8h7v2h-7zM13 11h7v1h-7zM13 13h7v1h-7zM13 15h3v1h-3zM16.998 15h1.002v1.002h-1.002z"></path>
</symbol>
<symbol id="icon-bones" viewBox="0 0 24 24">
<title>bones</title>
<path d="M21.824 14.785c-0.080-0.047-0.162-0.090-0.247-0.133l-0.186-0.121-4.077-2.863 1.184-0.883c1.119 0.475 2.605-0.465 3.248-0.869 1.633-1.031 2.121-3.197 1.090-4.828-0.94-1.488-2.824-2.027-4.387-1.328l-0.017-0.030c-0.883-1.398-2.74-1.818-4.139-0.936-0.918 0.58-1.59 2.229-0.857 4.090l-1.42 1.064-1.625-1.141c0.674-1.883-0.047-3.51-0.982-4.062-1.426-0.84-3.27-0.363-4.107 1.062l-0.020 0.029c-1.583-0.647-3.45-0.051-4.344 1.465-0.979 1.662-0.425 3.812 1.238 4.793 0.655 0.385 2.172 1.277 3.275 0.768l1.383 0.969-4.158 3.113-0.182 0.126c-0.082 0.045-0.162 0.090-0.24 0.141-1.634 1.029-2.121 3.197-1.092 4.828 1.031 1.631 3.197 2.121 4.828 1.090 0.781-0.492 1.32-1.258 1.529-2.148l4.612-3.443 4.543 3.18c0.237 0.883 0.8 1.631 1.595 2.1 1.662 0.98 3.814 0.424 4.792-1.238 0.982-1.664 0.425-3.814-1.237-4.795zM13.85 9.236l2.268-1.68-0.533-0.846c-0.752-1.189-0.382-2.094-0.223-2.225 0.465-0.295 1.084-0.154 1.379 0.311l1.068 1.691 1.268-0.801c0.698-0.441 1.627-0.232 2.070 0.467 0.441 0.699 0.23 1.629-0.469 2.070-0.766 0.484-1.152 0.643-1.347 0.676l-0.454-0.719-3.563 2.59-1.862-1.238 0.398-0.296zM9.292 15.148l-3.643 2.648-0.042 0.494c-0.039 0.48-0.289 0.898-0.684 1.146-0.699 0.441-1.629 0.232-2.070-0.467s-0.232-1.627 0.467-2.068c0.085-0.055 0.176-0.1 0.27-0.135l1-0.668 4.459-3.305 1.814 1.211-1.571 1.144zM21.34 18.562c-0.42 0.713-1.343 0.951-2.056 0.531-0.402-0.238-0.663-0.646-0.718-1.125l-0.059-0.494-13.515-9.204-0.433 0.736c-0.196-0.027-0.586-0.176-1.368-0.635-0.712-0.422-0.949-1.342-0.531-2.055 0.422-0.713 1.342-0.951 2.054-0.531l2.31-0.961c0.279-0.477 0.895-0.633 1.369-0.354 0.16 0.125 0.559 1.020-0.154 2.23l-0.509 0.862 11.785 8.183 1.020 0.637c0.096 0.031 0.188 0.076 0.272 0.125 0.714 0.423 0.951 1.343 0.533 2.055z"></path>
</symbol>
<symbol id="icon-cogs" viewBox="0 0 32 32">
<title>cogs</title>
<path d="M11.366 22.564l1.291-1.807-1.414-1.414-1.807 1.291c-0.335-0.187-0.694-0.337-1.071-0.444l-0.365-2.19h-2l-0.365 2.19c-0.377 0.107-0.736 0.256-1.071 0.444l-1.807-1.291-1.414 1.414 1.291 1.807c-0.187 0.335-0.337 0.694-0.443 1.071l-2.19 0.365v2l2.19 0.365c0.107 0.377 0.256 0.736 0.444 1.071l-1.291 1.807 1.414 1.414 1.807-1.291c0.335 0.187 0.694 0.337 1.071 0.444l0.365 2.19h2l0.365-2.19c0.377-0.107 0.736-0.256 1.071-0.444l1.807 1.291 1.414-1.414-1.291-1.807c0.187-0.335 0.337-0.694 0.444-1.071l2.19-0.365v-2l-2.19-0.365c-0.107-0.377-0.256-0.736-0.444-1.071zM7 27c-1.105 0-2-0.895-2-2s0.895-2 2-2 2 0.895 2 2-0.895 2-2 2zM32 12v-2l-2.106-0.383c-0.039-0.251-0.088-0.499-0.148-0.743l1.799-1.159-0.765-1.848-2.092 0.452c-0.132-0.216-0.273-0.426-0.422-0.629l1.219-1.761-1.414-1.414-1.761 1.219c-0.203-0.149-0.413-0.29-0.629-0.422l0.452-2.092-1.848-0.765-1.159 1.799c-0.244-0.059-0.492-0.109-0.743-0.148l-0.383-2.106h-2l-0.383 2.106c-0.251 0.039-0.499 0.088-0.743 0.148l-1.159-1.799-1.848 0.765 0.452 2.092c-0.216 0.132-0.426 0.273-0.629 0.422l-1.761-1.219-1.414 1.414 1.219 1.761c-0.149 0.203-0.29 0.413-0.422 0.629l-2.092-0.452-0.765 1.848 1.799 1.159c-0.059 0.244-0.109 0.492-0.148 0.743l-2.106 0.383v2l2.106 0.383c0.039 0.251 0.088 0.499 0.148 0.743l-1.799 1.159 0.765 1.848 2.092-0.452c0.132 0.216 0.273 0.426 0.422 0.629l-1.219 1.761 1.414 1.414 1.761-1.219c0.203 0.149 0.413 0.29 0.629 0.422l-0.452 2.092 1.848 0.765 1.159-1.799c0.244 0.059 0.492 0.109 0.743 0.148l0.383 2.106h2l0.383-2.106c0.251-0.039 0.499-0.088 0.743-0.148l1.159 1.799 1.848-0.765-0.452-2.092c0.216-0.132 0.426-0.273 0.629-0.422l1.761 1.219 1.414-1.414-1.219-1.761c0.149-0.203 0.29-0.413 0.422-0.629l2.092 0.452 0.765-1.848-1.799-1.159c0.059-0.244 0.109-0.492 0.148-0.743l2.106-0.383zM21 15.35c-2.402 0-4.35-1.948-4.35-4.35s1.948-4.35 4.35-4.35 4.35 1.948 4.35 4.35c0 2.402-1.948 4.35-4.35 4.35z"></path>
</symbol>
</defs>
</svg>
