<svg aria-hidden="true" style="position: absolute; width: 0; height: 0; overflow: hidden;" version="1.1" xmlns="http://www.w3.org/2000/svg" xmlns:xlink="http://www.w3.org/1999/xlink">
<defs>
<symbol id="icon-browser" viewBox="0 0 42 32">
<title>browser</title>
<path d="M41.5 10c-0.276 0-0.5 0.224-0.5 0.5v20c0 0.276-0.224 0.5-0.5 0.5h-39c-0.276 0-0.5-0.224-0.5-0.5v-20c0-0.276-0.224-0.5-0.5-0.5s-0.5 0.224-0.5 0.5v20c0 0.827 0.673 1.5 1.5 1.5h39c0.827 0 1.5-0.673 1.5-1.5v-20c0-0.276-0.224-0.5-0.5-0.5zM40.5 0h-39c-0.827 0-1.5 0.673-1.5 1.5v6c0 0.276 0.224 0.5 0.5 0.5h41c0.276 0 0.5-0.224 0.5-0.5v-6c0-0.827-0.673-1.5-1.5-1.5zM41 7h-40v-5.5c0-0.276 0.224-0.5 0.5-0.5h39c0.276 0 0.5 0.224 0.5 0.5v5.5zM17.5 28c0.276 0 0.5-0.224 0.5-0.5v-16c0-0.276-0.224-0.5-0.5-0.5h-13c-0.276 0-0.5 0.224-0.5 0.5v16c0 0.276 0.224 0.5 0.5 0.5h13zM5 12h12v15h-12v-15zM22.5 15h15c0.276 0 0.5-0.224 0.5-0.5s-0.224-0.5-0.5-0.5h-15c-0.276 0-0.5 0.224-0.5 0.5s0.224 0.5 0.5 0.5zM22.5 20h15c0.276 0 0.5-0.224 0.5-0.5s-0.224-0.5-0.5-0.5h-15c-0.276 0-0.5 0.224-0.5 0.5s0.224 0.5 0.5 0.5zM22.5 25h15c0.276 0 0.5-0.224 0.5-0.5s-0.224-0.5-0.5-0.5h-15c-0.276 0-0.5 0.224-0.5 0.5s0.224 0.5 0.5 0.5zM3 4c0 0.552 0.448 1 1 1s1-0.448 1-1c0-0.552-0.448-1-1-1s-1 0.448-1 1zM7 4c0 0.552 0.448 1 1 1s1-0.448 1-1c0-0.552-0.448-1-1-1s-1 0.448-1 1zM11 4c0 0.552 0.448 1 1 1s1-0.448 1-1c0-0.552-0.448-1-1-1s-1 0.448-1 1z"></path>
</symbol>
<symbol id="icon-tools-2" viewBox="0 0 32 32">
<title>tools-2</title>
<path d="M28.354 1.354c0.115-0.115 0.167-0.279 0.139-0.439s-0.132-0.297-0.28-0.366c-2.291-1.080-5.010-0.606-6.798 1.191-1.698 1.709-2.291 4.393-1.499 6.637l-11.539 11.539c-0.627-0.224-1.297-0.336-1.996-0.336-1.714 0-3.376 0.682-4.559 1.872-1.782 1.792-2.284 4.44-1.281 6.747 0.066 0.152 0.203 0.262 0.366 0.292 0.164 0.031 0.331-0.021 0.447-0.139l3.491-3.509c0.23-0.232 0.601-0.263 0.793-0.068l1.507 1.577c0.219 0.221 0.209 0.562-0.022 0.795l-3.478 3.5c-0.115 0.115-0.166 0.279-0.138 0.439s0.132 0.296 0.279 0.365c0.829 0.391 1.701 0.588 2.591 0.588 1.572 0 3.065-0.632 4.207-1.78 1.698-1.708 2.291-4.392 1.498-6.636l11.539-11.54c0.628 0.224 1.298 0.336 1.997 0.336 1.714 0 3.376-0.682 4.559-1.872 1.782-1.792 2.284-4.44 1.281-6.747-0.066-0.152-0.203-0.262-0.366-0.292-0.161-0.028-0.33 0.021-0.447 0.139l-3.491 3.509c-0.215 0.216-0.58 0.214-0.801-0.010l-1.499-1.499c-0.226-0.227-0.225-0.568-0.001-0.794l3.501-3.499zM24.146 6.354l1.499 1.499c0.599 0.602 1.625 0.605 2.218 0.009l2.93-2.944c0.469 1.741-0.016 3.609-1.324 4.926-0.997 1.003-2.399 1.577-3.85 1.577-0.683 0-1.33-0.128-1.923-0.38-0.188-0.081-0.405-0.037-0.549 0.106l-12 12c-0.144 0.144-0.186 0.36-0.107 0.547 0.803 1.91 0.314 4.375-1.163 5.861-1.321 1.328-3.244 1.801-4.985 1.258l2.941-2.96c0.621-0.625 0.631-1.594 0.029-2.198l-1.506-1.577c-0.581-0.585-1.614-0.549-2.218 0.062l-2.93 2.944c-0.469-1.741 0.016-3.609 1.324-4.926 0.997-1.003 2.399-1.577 3.85-1.577 0.683 0 1.33 0.128 1.923 0.38 0.187 0.082 0.405 0.037 0.549-0.106l12-12c0.144-0.144 0.186-0.36 0.107-0.547-0.803-1.91-0.314-4.376 1.163-5.862 1.32-1.328 3.242-1.798 4.982-1.258l-2.96 2.961c-0.616 0.617-0.616 1.585 0 2.205zM29.21 30.647c-0.221 0.222-0.604 0.222-0.827-0.002l-10.030-10c-0.195-0.193-0.512-0.194-0.707 0.002s-0.194 0.512 0.001 0.707l10.029 9.998c0.3 0.301 0.698 0.467 1.122 0.467 0 0 0 0 0 0 0.424 0 0.822-0.166 1.128-0.474l1.429-1.493c0.615-0.618 0.615-1.587-0.001-2.206l-10-10c-0.195-0.195-0.512-0.195-0.707 0s-0.195 0.512 0 0.707l9.999 9.999c0.229 0.23 0.229 0.564-0.007 0.802l-1.429 1.493zM5.854 3.146l-3-3c-0.195-0.195-0.512-0.195-0.707 0l-2 2c-0.195 0.195-0.195 0.512 0 0.707l3 3c0.097 0.098 0.225 0.147 0.353 0.147s0.256-0.049 0.354-0.146l0.646-0.647 7.646 7.646c0.098 0.098 0.226 0.147 0.354 0.147s0.256-0.049 0.354-0.146c0.195-0.195 0.195-0.512 0-0.707l-7.647-7.647 0.646-0.646c0.196-0.196 0.196-0.512 0.001-0.708zM3.5 4.793l-2.293-2.293 1.293-1.293 2.293 2.293-1.293 1.293z"></path>
</symbol>
<symbol id="icon-tools" viewBox="0 0 31 32">
<title>tools</title>
<path d="M0.211 5.646c-0.847 0.848-0.666 2.042 0.008 2.715 0.027 0.026 2.734 2.612 6.541 6.419 0.098 0.098 0.226 0.146 0.354 0.146s0.256-0.049 0.354-0.146c0.195-0.195 0.195-0.512 0-0.707-0.574-0.574-1.12-1.117-1.638-1.631l1.589-1.589c0.195-0.195 0.195-0.512 0-0.707s-0.512-0.195-0.707 0l-1.593 1.593c-0.891-0.88-1.676-1.648-2.315-2.271l3.615-3.615c0.195-0.195 0.195-0.512 0-0.707s-0.512-0.195-0.707 0l-3.626 3.626c-0.736-0.713-1.16-1.118-1.167-1.125-0.211-0.211-0.488-0.805 0-1.293l5-5c0.193-0.196 0.707-0.585 1.271-0.024 0.025 0.028 2.55 2.896 6.404 6.75 0.195 0.195 0.512 0.195 0.707 0s0.195-0.512 0-0.707c-3.83-3.829-6.336-6.675-6.382-6.727-0.932-0.93-2.056-0.651-2.707 0l-5.001 5zM21.419 24.146c-0.195-0.195-0.512-0.195-0.707 0l-1.591 1.59c-0.485-0.491-0.994-1.005-1.53-1.541-0.195-0.195-0.512-0.195-0.707 0s-0.195 0.512 0 0.707c3.704 3.703 6.291 6.469 6.328 6.509 0.343 0.344 0.813 0.533 1.323 0.533v0c0.525 0 1.056-0.205 1.385-0.535l4.998-5.057c0.629-0.629 0.665-1.696 0.078-2.285l-6.706-6.705c-0.195-0.195-0.512-0.195-0.707 0s-0.195 0.512 0 0.707l6.706 6.705c0.2 0.2 0.162 0.632-0.079 0.873l-4.999 5.057c-0.115 0.116-0.376 0.24-0.676 0.24 0 0 0 0 0 0-0.172 0-0.418-0.042-0.604-0.229-0.010-0.011-0.429-0.458-1.156-1.219l3.644-3.644c0.195-0.195 0.195-0.512 0-0.707s-0.512-0.195-0.707 0l-3.629 3.629c-0.624-0.649-1.389-1.438-2.26-2.326l1.596-1.596c0.195-0.194 0.195-0.51 0-0.706zM-0.293 31.829c0.096 0.098 0.225 0.15 0.358 0.15 0.048 0 0.096-0.007 0.143-0.021l10-2.979c0.081-0.024 0.153-0.067 0.212-0.127l17.090-17.205c0.024-0.024 0.036-0.055 0.054-0.082l3.656-3.656c0.294-0.295 0.457-0.686 0.457-1.103s-0.163-0.807-0.457-1.1l-5.235-5.234c-0.588-0.588-1.615-0.588-2.203 0l-3.739 3.739c-0.024 0.024-0.037 0.055-0.055 0.083l-17.116 17.117c-0.056 0.056-0.098 0.124-0.122 0.199l-3.16 9.715c-0.058 0.177-0.013 0.37 0.117 0.504zM20.425 5.271l1.039 1.039-15.523 15.565-1.727-0.392 16.211-16.212zM6.565 22.666l15.607-15.648 2.436 2.436-15.748 15.546h-2.295v-2.334zM26.449 11.296l-16.244 16.354-0.577-2.002 15.687-15.487 1.134 1.135zM3.558 22.359l2.007 0.456v2.685c0 0.276 0.224 0.5 0.5 0.5h2.624l0.634 2.2-8.488 2.529 2.723-8.37zM24.49 1.179c0.211-0.211 0.578-0.211 0.789 0l5.235 5.235c0.105 0.105 0.163 0.245 0.163 0.394 0 0.148-0.058 0.289-0.164 0.395l-3.371 3.372-6.023-6.023 3.371-3.373z"></path>
</symbol>
<symbol id="icon-document-certificate" viewBox="0 0 32 32">
<title>document-certificate</title>
<path d="M21 24.95v0 0c0.619-0.631 1-1.496 1-2.45 0-1.933-1.567-3.5-3.5-3.5s-3.5 1.567-3.5 3.5c0 0.954 0.381 1.818 1 2.45v2.050h-8.003c-1.107 0-1.997-0.899-1.997-2.007v-22.985c0-1.109 0.899-2.007 2.009-2.007h9.991v6.002c0 1.111 0.898 1.998 2.006 1.998h4.994v17.003c0 1.107-0.894 1.997-1.997 1.997h-2.003v-2.050zM17 25.663v4.937l1.5-1.5 1.5 1.5v-4.937c-0.455 0.216-0.963 0.337-1.5 0.337s-1.045-0.121-1.5-0.337v0 0zM19 0v5.997c0 0.554 0.451 1.003 0.991 1.003h5.009l-6-7zM9 7v1h7v-1h-7zM9 4v1h7v-1h-7zM9 10v1h13v-1h-13zM9 13v1h13v-1h-13zM9 16v1h13v-1h-13zM18.5 25c1.381 0 2.5-1.119 2.5-2.5s-1.119-2.5-2.5-2.5c-1.381 0-2.5 1.119-2.5 2.5s1.119 2.5 2.5 2.5v0z"></path>
</symbol>
<symbol id="icon-document-certificate1" viewBox="0 0 32 32">
<title>document-certificate1</title>
<path d="M21 24.95v0 0c0.619-0.631 1-1.496 1-2.45 0-1.933-1.567-3.5-3.5-3.5s-3.5 1.567-3.5 3.5c0 0.954 0.381 1.818 1 2.45v1.050h-8c-0.545 0-1-0.446-1-0.995v-23.009c0-0.54 0.446-0.995 0.996-0.995h10.004v4.994c0 1.119 0.895 2.006 1.998 2.006h4.002v17.007c0 0.548-0.448 0.993-1 0.993h-2v-1.050zM17 25.663v0 0c0.455 0.216 0.963 0.337 1.5 0.337s1.045-0.121 1.5-0.337v3.937l-1.5-1.5-1.5 1.5v-3.937zM21 27h2.003c1.103 0 1.997-0.898 1.997-1.991v-18.009l-6-7h-10.997c-1.106 0-2.003 0.898-2.003 2.007v22.985c0 1.109 0.891 2.007 1.997 2.007h8.003v5l2.5-2.5 2.5 2.5v-5zM19 1.5l4.7 5.5h-3.703c-0.546 0-0.997-0.452-0.997-1.009v-4.491zM9 7v1h7v-1h-7zM9 4v1h7v-1h-7zM9 10v1h13v-1h-13zM9 13v1h13v-1h-13zM9 16v1h13v-1h-13zM18.5 25v0c-1.381 0-2.5-1.119-2.5-2.5s1.119-2.5 2.5-2.5c1.381 0 2.5 1.119 2.5 2.5s-1.119 2.5-2.5 2.5z"></path>
</symbol>
<symbol id="icon-certificate" viewBox="0 0 32 32">
<title>certificate</title>
<path d="M13 19.95v0 0c0.619-0.631 1-1.496 1-2.45 0-1.933-1.567-3.5-3.5-3.5s-3.5 1.567-3.5 3.5c0 0.954 0.381 1.818 1 2.45v3.050h-1.995c-1.108 0-2.005-0.895-2.005-2v-13c0-1.11 0.898-2 2.005-2h19.99c1.108 0 2.005 0.895 2.005 2v13c0 1.11-0.898 2-2.005 2h-12.995v-3.050zM9 20.663v4.937l1.5-1.5 1.5 1.5v-4.937c-0.455 0.216-0.963 0.337-1.5 0.337s-1.045-0.121-1.5-0.337v0 0zM7 11v1h18v-1h-18zM16 14v1h9v-1h-9zM19 17v1h6v-1h-6zM10.5 20c1.381 0 2.5-1.119 2.5-2.5s-1.119-2.5-2.5-2.5c-1.381 0-2.5 1.119-2.5 2.5s1.119 2.5 2.5 2.5v0z"></path>
</symbol>
<symbol id="icon-certificate1" viewBox="0 0 32 32">
<title>certificate1</title>
<path d="M13 19.95v2.050h12.998c0.554 0 1.002-0.449 1.002-1.007v-12.985c0-0.556-0.439-1.007-1.002-1.007h-19.995c-0.554 0-1.002 0.449-1.002 1.007v12.985c0 0.556 0.439 1.007 1.002 1.007h1.998v-2.050c-0.619-0.631-1-1.496-1-2.45 0-1.933 1.567-3.5 3.5-3.5s3.5 1.567 3.5 3.5c0 0.954-0.381 1.818-1 2.45v0 0zM9 20.663v3.937l1.5-1.5 1.5 1.5v-3.937c-0.455 0.216-0.963 0.337-1.5 0.337s-1.045-0.121-1.5-0.337v0 0zM8 23h-1.995c-1.108 0-2.005-0.895-2.005-2v-13c0-1.11 0.898-2 2.005-2h19.99c1.108 0 2.005 0.895 2.005 2v13c0 1.11-0.898 2-2.005 2h-12.995v4l-2.5-2.5-2.5 2.5v-4zM7 11v1h18v-1h-18zM16 14v1h9v-1h-9zM19 17v1h6v-1h-6zM10.5 20c1.381 0 2.5-1.119 2.5-2.5s-1.119-2.5-2.5-2.5c-1.381 0-2.5 1.119-2.5 2.5s1.119 2.5 2.5 2.5v0z"></path>
</symbol>
<symbol id="icon-presentation" viewBox="0 0 32 32">
<title>presentation</title>
<path d="M27.002 5.005h-23.005c-0.551 0-0.997-0.447-0.997-1s0.446-0.999 0.997-0.999h10.536v-1c0-0.552 0.447-0.999 0.998-0.999s0.997 0.447 0.997 0.999v1h10.474c0.552 0 0.998 0.448 0.998 0.999 0 0.553-0.446 1-0.998 1zM27.002 20.998h-23.005v-14.994h23.005v14.994zM7 13.032c0 2.213 1.791 4.007 4 4.007s4-1.794 4-4.007h-4v-4.009c-2.209 0-4 1.795-4 4.009zM18.024 9.003h-0.997v0.999h0.997v-0.999zM18.024 11.002h-0.997v0.999h0.997v-0.999zM18.024 13.001h-0.997v0.999h0.997v-0.999zM18.024 15h-0.997v1h0.997v-1zM18.024 17h-0.997v1h0.997v-1zM24.010 9.003h-4.987v0.999h4.987v-0.999zM24.010 11.002h-4.987v0.999h4.987v-0.999zM24.010 13.001h-4.987v0.999h4.987v-0.999zM24.010 15h-4.987v1h4.987v-1zM24.010 17h-4.987v1h4.987v-1zM12.781 25.996h2.251v-4.998h0.998v4.998h2.216l-2.216-4.998h1.995l3.989 8.996h-1.994l-1.33-3h-2.66v4.998h-0.998v-4.998h-2.701l-1.351 3h-1.995l4.052-8.996h1.995l-2.251 4.998zM16.030 20.998v0 0 0zM15.032 20.998v0 0 0z"></path>
</symbol>
<symbol id="icon-tools1" viewBox="0 0 32 32">
<title>tools1</title>
<path d="M27.783 7.936c0.959 2.313 0.502 5.074-1.379 6.955-2.071 2.071-5.201 2.395-7.634 1.022l-1.759 1.921 1.255 1.26 0.75-0.75c0.383-0.384 1.005-0.384 1.388 0l6.082 6.144c0.384 0.383 0.384 1.005 0 1.388l-2.776 2.776c-0.383 0.384-1.005 0.384-1.388 0l-6.082-6.144c-0.384-0.383-0.384-1.005 0-1.388l0.685-0.685-1.196-1.199-8.411 9.189c-0.767 0.767-2.010 0.767-2.776 0l-0.694-0.694c-0.767-0.767-0.767-2.010 0-2.776l9.582-8.025-6.364-6.381-2.010-0.001-2.326-3.74 1.872-1.875 3.825 2.341 0.025 1.968 6.438 6.463 1.873-1.568c-1.831-2.496-1.64-6.012 0.616-8.268 1.872-1.872 4.618-2.337 6.925-1.396l-4.124 4.067 3.471 3.471 4.132-4.075zM6.15 25.934c-0.383-0.383-1.004-0.383-1.388 0-0.384 0.384-0.384 1.005 0 1.389 0.384 0.383 1.005 0.383 1.388 0 0.384-0.385 0.384-1.006 0-1.389z"></path>
</symbol>
<symbol id="icon-chat" viewBox="0 0 32 32">
<title>chat</title>
<path d="M16 5.274c-6.939 0-12.565 4.187-12.565 9.352 0 3.104 2.032 5.854 5.16 7.555-0.009 0.027-2.492 4.545-2.492 4.545s7.583-2.892 7.604-2.904c0.744 0.103 1.511 0.155 2.294 0.155 6.939 0 12.565-4.187 12.565-9.351-0.001-5.165-5.627-9.352-12.566-9.352zM9.968 15.625c-0.552 0-1-0.448-1-1 0-0.553 0.448-1 1-1s1 0.447 1 1c0 0.552-0.447 1-1 1zM13.947 15.667c-0.552 0-1-0.448-1-1 0-0.553 0.448-1 1-1 0.553 0 1 0.447 1 1 0 0.552-0.447 1-1 1zM17.988 15.667c-0.552 0-1-0.448-1-1 0-0.553 0.448-1 1-1 0.553 0 1 0.447 1 1 0 0.552-0.447 1-1 1zM21.988 15.667c-0.552 0-1-0.448-1-1 0-0.553 0.448-1 1-1 0.553 0 1 0.447 1 1 0 0.552-0.447 1-1 1z"></path>
</symbol>
<symbol id="icon-chat1" viewBox="0 0 32 32">
<title>chat1</title>
<path d="M25.785 4.952h-19.57c-1.235 0-2.236 1.002-2.236 2.236v12.488c0 1.234 1.001 2.236 2.236 2.236h3.729l0.001 5.137 5.704-5.137h10.137c1.236 0 2.236-1.002 2.236-2.236v-12.488c-0.001-1.234-1.001-2.236-2.237-2.236zM10 13.969c-0.553 0-1-0.448-1-1 0-0.553 0.447-1 1-1 0.552 0 1 0.447 1 1 0 0.552-0.448 1-1 1zM14 13.927c-0.553 0-1-0.448-1-1 0-0.553 0.447-1 1-1 0.552 0 1 0.447 1 1 0 0.552-0.448 1-1 1zM18.020 13.948c-0.552 0-1-0.447-1-1 0-0.552 0.448-1 1-1 0.553 0 1 0.448 1 1s-0.448 1-1 1zM22 13.969c-0.553 0-1-0.448-1-1 0-0.553 0.447-1 1-1 0.552 0 1 0.447 1 1 0 0.552-0.448 1-1 1z"></path>
</symbol>
<symbol id="icon-comments" viewBox="0 0 34 32">
<title>comments</title>
<path d="M25.132 13.165c0-5.165-5.627-9.352-12.566-9.352s-12.566 4.187-12.566 9.352c0 3.104 2.032 5.854 5.16 7.555-0.009 0.027-2.492 4.545-2.492 4.545s7.582-2.892 7.603-2.904c0.744 0.103 1.511 0.155 2.295 0.155 6.939 0 12.566-4.187 12.566-9.351zM34.385 16.087c0-5.164-5.297-9.314-11.031-9.351 8.22 8.188-1.461 16.912-9.351 16.912 0 0 0.877 1.79 7.816 1.79 0.783 0 1.551-0.054 2.295-0.156 0.021 0.014 7.604 2.904 7.604 2.904s-2.484-4.517-2.492-4.544c3.127-1.701 5.159-4.452 5.159-7.555z"></path>
</symbol>
<symbol id="icon-chat3" viewBox="0 0 32 32">
<title>chat3</title>
<path d="M25.042 18.672v-12.487c0-1.234-1-2.236-2.236-2.236h-19.571c-1.235-0.001-2.236 1.001-2.236 2.236v12.487c0 1.235 1.001 2.236 2.236 2.236h3.729v5.137l5.704-5.137h10.137c1.237 0 2.237-1.001 2.237-2.236zM28.765 8.858h-2.798c0 0 0 9.972 0 10.909s-1.216 2.142-2.153 2.142-10.945 0.055-10.945 0.055c0 1.235 1.001 1.986 2.236 1.986h4.309l5.622 5.102-0.007-5.102h3.736c1.236 0 2.236-0.751 2.236-1.986v-10.932c0-1.234-1-2.174-2.236-2.174z"></path>
</symbol>
<symbol id="icon-tools2" viewBox="0 0 20 20">
<title>tools2</title>
<path d="M3.135 6.89c0.933-0.725 1.707-0.225 2.74 0.971 0.116 0.135 0.272-0.023 0.361-0.1 0.088-0.078 1.451-1.305 1.518-1.361 0.066-0.059 0.146-0.169 0.041-0.292-0.107-0.123-0.494-0.625-0.743-0.951-1.808-2.365 4.946-3.969 3.909-3.994-0.528-0.014-2.646-0.039-2.963-0.004-1.283 0.135-2.894 1.334-3.705 1.893-1.061 0.726-1.457 1.152-1.522 1.211-0.3 0.262-0.048 0.867-0.592 1.344-0.575 0.503-0.934 0.122-1.267 0.414-0.165 0.146-0.627 0.492-0.759 0.607-0.133 0.117-0.157 0.314-0.021 0.471 0 0 1.264 1.396 1.37 1.52 0.105 0.122 0.391 0.228 0.567 0.071 0.177-0.156 0.632-0.553 0.708-0.623 0.078-0.066-0.050-0.861 0.358-1.177zM8.843 7.407c-0.12-0.139-0.269-0.143-0.397-0.029l-1.434 1.252c-0.113 0.1-0.129 0.283-0.027 0.4l8.294 9.439c0.194 0.223 0.53 0.246 0.751 0.053l0.97-0.813c0.222-0.195 0.245-0.533 0.052-0.758l-8.209-9.544zM19.902 3.39c-0.074-0.494-0.33-0.391-0.463-0.182-0.133 0.211-0.721 1.102-0.963 1.506-0.24 0.4-0.832 1.191-1.934 0.41-1.148-0.811-0.749-1.377-0.549-1.758 0.201-0.383 0.818-1.457 0.907-1.59 0.089-0.135-0.015-0.527-0.371-0.363s-2.523 1.025-2.823 2.26c-0.307 1.256 0.257 2.379-0.85 3.494l-1.343 1.4 1.349 1.566 1.654-1.57c0.394-0.396 1.236-0.781 1.998-0.607 1.633 0.369 2.524-0.244 3.061-1.258 0.482-0.906 0.402-2.814 0.327-3.308zM2.739 17.053c-0.208 0.209-0.208 0.549 0 0.758l0.951 0.93c0.208 0.209 0.538 0.121 0.746-0.088l4.907-4.824-1.503-1.714-5.101 4.938z"></path>
</symbol>
<symbol id="icon-store-front" viewBox="0 0 20 20">
<title>store-front</title>
<path d="M18 9.87v10.13h-16v-10.13c0.301 0.076 0.646 0.12 1.001 0.12 0.732 0 1.42-0.185 2.022-0.511l-0.022 0.011v4.51h10v-4.5c0.576 0.31 1.261 0.492 1.988 0.492 0.359 0 0.708-0.045 1.042-0.128l-0.029 0.006zM3 0h4l-0.67 6.030c-0.231 1.663-1.627 2.935-3.326 2.97l-0.004 0c-1.66 0-2.58-1.27-2.050-2.85l2.050-6.15zM8 0h4l0.7 6.3c0.17 1.5-0.91 2.7-2.42 2.7h-0.56c-0.018 0.001-0.040 0.001-0.062 0.001-1.314 0-2.38-1.066-2.38-2.38 0-0.113 0.008-0.224 0.023-0.333l-0.001 0.013 0.7-6.3zM13 0h4l2.050 6.15c0.53 1.58-0.4 2.85-2.050 2.85-1.705-0.031-3.103-1.305-3.328-2.952l-0.002-0.018-0.67-6.030z"></path>
</symbol>
<symbol id="icon-servers" viewBox="0 0 20 20">
<title>servers</title>
<path d="M0 2c0-1.1 0.9-2 2-2h16c1.105 0 2 0.895 2 2v0 2c0 1.105-0.895 2-2 2v0h-16c-1.105 0-2-0.895-2-2v0-2zM0 9c0-1.1 0.9-2 2-2h16c1.105 0 2 0.895 2 2v0 2c0 1.105-0.895 2-2 2v0h-16c-1.105 0-2-0.895-2-2v0-2zM0 16c0-1.1 0.9-2 2-2h16c1.105 0 2 0.895 2 2v0 2c0 1.105-0.895 2-2 2v0h-16c-1.105 0-2-0.895-2-2v0-2zM12 2v2h2v-2h-2zM16 2v2h2v-2h-2zM12 9v2h2v-2h-2zM16 9v2h2v-2h-2zM12 16v2h2v-2h-2zM16 16v2h2v-2h-2z"></path>
</symbol>
<symbol id="icon-chat4" viewBox="0 0 48 48">
<title>chat4</title>
<path d="M0 33c0 2.21 1.79 4 4 4h6v6.17c0 1.11 0.9 2 2 2 0.561 0 1.069-0.23 1.43-0.6l7.57-7.57h22c2.21 0 4-1.79 4-4l-0-25c0-2.21-1.79-4-4-4l-39 0c-2.21 0-4 1.79-4 4v25zM12 21.5c0-1.38 1.12-2.5 2.5-2.5s2.5 1.12 2.5 2.5-1.12 2.5-2.5 2.5-2.5-1.12-2.5-2.5zM21 21.5c0-1.38 1.12-2.5 2.5-2.5s2.5 1.12 2.5 2.5-1.12 2.5-2.5 2.5-2.5-1.12-2.5-2.5zM30 21.5c0-1.38 1.12-2.5 2.5-2.5s2.5 1.12 2.5 2.5-1.12 2.5-2.5 2.5-2.5-1.12-2.5-2.5z"></path>
</symbol>
<symbol id="icon-comment3" viewBox="0 0 32 32">
<title>comment3</title>
<path d="M16 27.969c-0.649 0-1.599-0.73-2.229-0.797-1.797 1.507-3.669 3.321-6.214 4.264-1.111 0.471-2.065 0.744-2.313 0.447-0.333-0.387-0.836-0.924-0.925-1.068 0.005-0.214 0.264-0.045 0.546-0.349 1.536-0.646 2.528-2.313 3.195-4.351-4.811-2.411-8.060-6.934-8.060-12.128 0-7.721 7.164-13.981 16-13.981s16 6.259 16 13.981-7.164 13.982-16 13.982z"></path>
</symbol>
<symbol id="icon-left-quote" viewBox="0 0 32 32">
<title>left-quote</title>
<path d="M32 28v-12h-8c0-4.41 3.586-8 8-8v-4c-6.617 0-12 5.383-12 12v12h12zM12 28v-12h-8c0-4.41 3.586-8 8-8v-4c-6.617 0-12 5.383-12 12v12h12z"></path>
</symbol>
<symbol id="icon-home" viewBox="0 0 32 32">
<title>home</title>
<path d="M32 18.451l-16-12.42-16 12.42v-5.064l16-12.42 16 12.42zM28 18v12h-8v-8h-8v8h-8v-12l12-9z"></path>
</symbol>
<symbol id="icon-home2" viewBox="0 0 32 32">
<title>home2</title>
<path d="M16 1l-16 16 3 3 3-3v13h8v-6h4v6h8v-13l3 3 3-3-16-16zM16 14c-1.105 0-2-0.895-2-2s0.895-2 2-2c1.105 0 2 0.895 2 2s-0.895 2-2 2z"></path>
</symbol>
<symbol id="icon-home3" viewBox="0 0 32 32">
<title>home3</title>
<path d="M32 19l-6-6v-9h-4v5l-6-6-16 16v1h4v10h10v-6h4v6h10v-10h4z"></path>
</symbol>
<symbol id="icon-files-empty" viewBox="0 0 32 32">
<title>files-empty</title>
<path d="M28.681 11.159c-0.694-0.947-1.662-2.053-2.724-3.116s-2.169-2.030-3.116-2.724c-1.612-1.182-2.393-1.319-2.841-1.319h-11.5c-1.379 0-2.5 1.122-2.5 2.5v23c0 1.378 1.121 2.5 2.5 2.5h19c1.378 0 2.5-1.122 2.5-2.5v-15.5c0-0.448-0.137-1.23-1.319-2.841zM24.543 9.457c0.959 0.959 1.712 1.825 2.268 2.543h-4.811v-4.811c0.718 0.556 1.584 1.309 2.543 2.268v0zM28 29.5c0 0.271-0.229 0.5-0.5 0.5h-19c-0.271 0-0.5-0.229-0.5-0.5v-23c0-0.271 0.229-0.5 0.5-0.5 0 0 11.499-0 11.5 0v7c0 0.552 0.448 1 1 1h7v15.5z"></path>
<path d="M18.841 1.319c-1.612-1.182-2.393-1.319-2.841-1.319h-11.5c-1.378 0-2.5 1.121-2.5 2.5v23c0 1.207 0.86 2.217 2 2.45v-25.45c0-0.271 0.229-0.5 0.5-0.5h15.215c-0.301-0.248-0.595-0.477-0.873-0.681z"></path>
</symbol>
<symbol id="icon-copy" viewBox="0 0 32 32">
<title>copy</title>
<path d="M20 8v-8h-14l-6 6v18h12v8h20v-24h-12zM6 2.828v3.172h-3.172l3.172-3.172zM2 22v-14h6v-6h10v6l-6 6v8h-10zM18 10.828v3.172h-3.172l3.172-3.172zM30 30h-16v-14h6v-6h10v20z"></path>
</symbol>
<symbol id="icon-folder" viewBox="0 0 32 32">
<title>folder</title>
<path d="M14 4l4 4h14v22h-32v-26z"></path>
</symbol>
<symbol id="icon-folder-open" viewBox="0 0 32 32">
<title>folder-open</title>
<path d="M26 30l6-16h-26l-6 16zM4 12l-4 18v-26h9l4 4h13v4z"></path>
</symbol>
<symbol id="icon-address-book" viewBox="0 0 32 32">
<title>address-book</title>
<path d="M6 0v32h24v-32h-24zM18 8.010c2.203 0 3.99 1.786 3.99 3.99s-1.786 3.99-3.99 3.99-3.99-1.786-3.99-3.99 1.786-3.99 3.99-3.99v0zM24 24h-12v-2c0-2.209 1.791-4 4-4v0h4c2.209 0 4 1.791 4 4v2z"></path>
<path d="M2 2h3v6h-3v-6z"></path>
<path d="M2 10h3v6h-3v-6z"></path>
<path d="M2 18h3v6h-3v-6z"></path>
<path d="M2 26h3v6h-3v-6z"></path>
</symbol>
<symbol id="icon-envelop" viewBox="0 0 32 32">
<title>envelop</title>
<path d="M29 4h-26c-1.65 0-3 1.35-3 3v20c0 1.65 1.35 3 3 3h26c1.65 0 3-1.35 3-3v-20c0-1.65-1.35-3-3-3zM12.461 17.199l-8.461 6.59v-15.676l8.461 9.086zM5.512 8h20.976l-10.488 7.875-10.488-7.875zM12.79 17.553l3.21 3.447 3.21-3.447 6.58 8.447h-19.579l6.58-8.447zM19.539 17.199l8.461-9.086v15.676l-8.461-6.59z"></path>
</symbol>
<symbol id="icon-database" viewBox="0 0 32 32">
<title>database</title>
<path d="M16 0c-8.837 0-16 2.239-16 5v4c0 2.761 7.163 5 16 5s16-2.239 16-5v-4c0-2.761-7.163-5-16-5z"></path>
<path d="M16 17c-8.837 0-16-2.239-16-5v6c0 2.761 7.163 5 16 5s16-2.239 16-5v-6c0 2.761-7.163 5-16 5z"></path>
<path d="M16 26c-8.837 0-16-2.239-16-5v6c0 2.761 7.163 5 16 5s16-2.239 16-5v-6c0 2.761-7.163 5-16 5z"></path>
</symbol>
<symbol id="icon-bubble3" viewBox="0 0 32 32">
<title>bubble3</title>
<path d="M16 2c8.837 0 16 5.82 16 13s-7.163 13-16 13c-0.849 0-1.682-0.054-2.495-0.158-3.437 3.437-7.539 4.053-11.505 4.144v-0.841c2.142-1.049 4-2.961 4-5.145 0-0.305-0.024-0.604-0.068-0.897-3.619-2.383-5.932-6.024-5.932-10.103 0-7.18 7.163-13 16-13z"></path>
</symbol>
<symbol id="icon-bubbles2" viewBox="0 0 36 32">
<title>bubbles2</title>
<path d="M15 0v0c8.284 0 15 5.435 15 12.139s-6.716 12.139-15 12.139c-0.796 0-1.576-0.051-2.339-0.147-3.222 3.209-6.943 3.785-10.661 3.869v-0.785c2.008-0.98 3.625-2.765 3.625-4.804 0-0.285-0.022-0.564-0.063-0.837-3.392-2.225-5.562-5.625-5.562-9.434 0-6.704 6.716-12.139 15-12.139zM31.125 27.209c0 1.748 1.135 3.278 2.875 4.118v0.673c-3.223-0.072-6.181-0.566-8.973-3.316-0.661 0.083-1.337 0.126-2.027 0.126-2.983 0-5.732-0.805-7.925-2.157 4.521-0.016 8.789-1.464 12.026-4.084 1.631-1.32 2.919-2.87 3.825-4.605 0.961-1.84 1.449-3.799 1.449-5.825 0-0.326-0.014-0.651-0.039-0.974 2.268 1.873 3.664 4.426 3.664 7.24 0 3.265-1.88 6.179-4.82 8.086-0.036 0.234-0.055 0.474-0.055 0.718z"></path>
</symbol>
<symbol id="icon-bubble21" viewBox="0 0 32 32">
<title>bubble21</title>
<path d="M16 6c-1.717 0-3.375 0.271-4.928 0.804-1.46 0.502-2.76 1.211-3.863 2.108-2.069 1.681-3.209 3.843-3.209 6.088 0 1.259 0.35 2.481 1.039 3.63 0.711 1.185 1.781 2.268 3.093 3.133 0.949 0.625 1.587 1.623 1.755 2.747 0.056 0.375 0.091 0.753 0.105 1.129 0.233-0.194 0.461-0.401 0.684-0.624 0.755-0.755 1.774-1.172 2.828-1.172 0.168 0 0.336 0.011 0.505 0.032 0.655 0.083 1.325 0.126 1.99 0.126 1.717 0 3.375-0.271 4.928-0.804 1.46-0.502 2.76-1.211 3.863-2.108 2.069-1.681 3.209-3.843 3.209-6.088s-1.14-4.407-3.209-6.088c-1.104-0.897-2.404-1.606-3.863-2.108-1.553-0.534-3.211-0.804-4.928-0.804zM16 2v0c8.837 0 16 5.82 16 13s-7.163 13-16 13c-0.849 0-1.682-0.054-2.495-0.158-3.437 3.437-7.539 4.053-11.505 4.144v-0.841c2.142-1.049 4-2.961 4-5.145 0-0.305-0.024-0.604-0.068-0.897-3.619-2.383-5.932-6.024-5.932-10.103 0-7.18 7.163-13 16-13z"></path>
</symbol>
<symbol id="icon-users" viewBox="0 0 36 32">
<title>users</title>
<path d="M24 24.082v-1.649c2.203-1.241 4-4.337 4-7.432 0-4.971 0-9-6-9s-6 4.029-6 9c0 3.096 1.797 6.191 4 7.432v1.649c-6.784 0.555-12 3.888-12 7.918h28c0-4.030-5.216-7.364-12-7.918z"></path>
<path d="M10.225 24.854c1.728-1.13 3.877-1.989 6.243-2.513-0.47-0.556-0.897-1.176-1.265-1.844-0.95-1.726-1.453-3.627-1.453-5.497 0-2.689 0-5.228 0.956-7.305 0.928-2.016 2.598-3.265 4.976-3.734-0.529-2.39-1.936-3.961-5.682-3.961-6 0-6 4.029-6 9 0 3.096 1.797 6.191 4 7.432v1.649c-6.784 0.555-12 3.888-12 7.918h8.719c0.454-0.403 0.956-0.787 1.506-1.146z"></path>
</symbol>
<symbol id="icon-search" viewBox="0 0 32 32">
<title>search</title>
<path d="M31.008 27.231l-7.58-6.447c-0.784-0.705-1.622-1.029-2.299-0.998 1.789-2.096 2.87-4.815 2.87-7.787 0-6.627-5.373-12-12-12s-12 5.373-12 12 5.373 12 12 12c2.972 0 5.691-1.081 7.787-2.87-0.031 0.677 0.293 1.515 0.998 2.299l6.447 7.58c1.104 1.226 2.907 1.33 4.007 0.23s0.997-2.903-0.23-4.007zM12 20c-4.418 0-8-3.582-8-8s3.582-8 8-8 8 3.582 8 8-3.582 8-8 8z"></path>
</symbol>
<symbol id="icon-zoom-in" viewBox="0 0 32 32">
<title>zoom-in</title>
<path d="M31.008 27.231l-7.58-6.447c-0.784-0.705-1.622-1.029-2.299-0.998 1.789-2.096 2.87-4.815 2.87-7.787 0-6.627-5.373-12-12-12s-12 5.373-12 12 5.373 12 12 12c2.972 0 5.691-1.081 7.787-2.87-0.031 0.677 0.293 1.515 0.998 2.299l6.447 7.58c1.104 1.226 2.907 1.33 4.007 0.23s0.997-2.903-0.23-4.007zM12 20c-4.418 0-8-3.582-8-8s3.582-8 8-8 8 3.582 8 8-3.582 8-8 8zM14 6h-4v4h-4v4h4v4h4v-4h4v-4h-4z"></path>
</symbol>
<symbol id="icon-zoom-out" viewBox="0 0 32 32">
<title>zoom-out</title>
<path d="M31.008 27.231l-7.58-6.447c-0.784-0.705-1.622-1.029-2.299-0.998 1.789-2.096 2.87-4.815 2.87-7.787 0-6.627-5.373-12-12-12s-12 5.373-12 12 5.373 12 12 12c2.972 0 5.691-1.081 7.787-2.87-0.031 0.677 0.293 1.515 0.998 2.299l6.447 7.58c1.104 1.226 2.907 1.33 4.007 0.23s0.997-2.903-0.23-4.007zM12 20c-4.418 0-8-3.582-8-8s3.582-8 8-8 8 3.582 8 8-3.582 8-8 8zM6 10h12v4h-12z"></path>
</symbol>
<symbol id="icon-plus" viewBox="0 0 32 32">
<title>plus</title>
<path d="M31 12h-11v-11c0-0.552-0.448-1-1-1h-6c-0.552 0-1 0.448-1 1v11h-11c-0.552 0-1 0.448-1 1v6c0 0.552 0.448 1 1 1h11v11c0 0.552 0.448 1 1 1h6c0.552 0 1-0.448 1-1v-11h11c0.552 0 1-0.448 1-1v-6c0-0.552-0.448-1-1-1z"></path>
</symbol>
<symbol id="icon-loop" viewBox="0 0 32 32">
<title>loop</title>
<path d="M4 10h20v6l8-8-8-8v6h-24v12h4zM28 22h-20v-6l-8 8 8 8v-6h24v-12h-4z"></path>
</symbol>
<symbol id="icon-embed" viewBox="0 0 32 32">
<title>embed</title>
<path d="M18 23l3 3 10-10-10-10-3 3 7 7z"></path>
<path d="M14 9l-3-3-10 10 10 10 3-3-7-7z"></path>
</symbol>
<symbol id="icon-embed2" viewBox="0 0 40 32">
<title>embed2</title>
<path d="M26 23l3 3 10-10-10-10-3 3 7 7z"></path>
<path d="M14 9l-3-3-10 10 10 10 3-3-7-7z"></path>
<path d="M21.916 4.704l2.171 0.592-6 22.001-2.171-0.592 6-22.001z"></path>
</symbol>
<symbol id="icon-mail" viewBox="0 0 32 32">
<title>mail</title>
<path d="M26.666 0h-21.332c-2.934 0-5.334 2.4-5.334 5.333v21.333c0 2.934 2.4 5.334 5.334 5.334h21.332c2.936 0 5.334-2.4 5.334-5.334v-21.333c0-2.934-2.398-5.333-5.334-5.333zM8 8h16c0.286 0 0.563 0.061 0.817 0.177l-8.817 10.286-8.817-10.287c0.254-0.116 0.531-0.177 0.817-0.177zM6 22v-12c0-0.042 0.002-0.084 0.004-0.125l5.864 6.842-5.8 5.8c-0.045-0.167-0.069-0.34-0.069-0.517zM24 24h-16c-0.177 0-0.35-0.024-0.517-0.069l5.691-5.691 2.826 3.297 2.826-3.297 5.691 5.691c-0.167 0.045-0.34 0.069-0.517 0.069zM26 22c0 0.177-0.024 0.35-0.069 0.517l-5.8-5.8 5.864-6.842c0.003 0.041 0.004 0.083 0.004 0.125v12z"></path>
</symbol>
<symbol id="icon-mail4" viewBox="0 0 32 32">
<title>mail4</title>
<path d="M16 0c-8.837 0-16 7.163-16 16s7.163 16 16 16 16-7.163 16-16-7.163-16-16-16zM8 8h16c0.286 0 0.563 0.061 0.817 0.177l-8.817 10.286-8.817-10.287c0.254-0.116 0.531-0.177 0.817-0.177zM6 22v-12c0-0.042 0.002-0.084 0.004-0.125l5.864 6.842-5.8 5.8c-0.045-0.167-0.069-0.34-0.069-0.517zM24 24h-16c-0.177 0-0.35-0.024-0.517-0.069l5.691-5.691 2.826 3.297 2.826-3.297 5.691 5.691c-0.167 0.045-0.34 0.069-0.517 0.069zM26 22c0 0.177-0.024 0.35-0.069 0.517l-5.8-5.8 5.865-6.842c0.003 0.041 0.004 0.083 0.004 0.125v12z"></path>
</symbol>
<symbol id="icon-google-plus2" viewBox="0 0 32 32">
<title>google-plus2</title>
<path d="M29 0h-26c-1.65 0-3 1.35-3 3v26c0 1.65 1.35 3 3 3h26c1.65 0 3-1.35 3-3v-26c0-1.65-1.35-3-3-3zM12 24c-4.425 0-8-3.575-8-8s3.575-8 8-8c2.162 0 3.969 0.787 5.363 2.094l-2.175 2.088c-0.594-0.569-1.631-1.231-3.188-1.231-2.731 0-4.963 2.263-4.963 5.050s2.231 5.050 4.963 5.050c3.169 0 4.356-2.275 4.538-3.45h-4.537v-2.744h7.556c0.069 0.4 0.125 0.8 0.125 1.325 0 4.575-3.063 7.819-7.681 7.819zM28 16h-2v2h-2v-2h-2v-2h2v-2h2v2h2v2z"></path>
</symbol>
<symbol id="icon-facebook2" viewBox="0 0 32 32">
<title>facebook2</title>
<path d="M29 0h-26c-1.65 0-3 1.35-3 3v26c0 1.65 1.35 3 3 3h13v-14h-4v-4h4v-2c0-3.306 2.694-6 6-6h4v4h-4c-1.1 0-2 0.9-2 2v2h6l-1 4h-5v14h9c1.65 0 3-1.35 3-3v-26c0-1.65-1.35-3-3-3z"></path>
</symbol>
<symbol id="icon-twitter" viewBox="0 0 32 32">
<title>twitter</title>
<path d="M32 7.075c-1.175 0.525-2.444 0.875-3.769 1.031 1.356-0.813 2.394-2.1 2.887-3.631-1.269 0.75-2.675 1.3-4.169 1.594-1.2-1.275-2.906-2.069-4.794-2.069-3.625 0-6.563 2.938-6.563 6.563 0 0.512 0.056 1.012 0.169 1.494-5.456-0.275-10.294-2.888-13.531-6.862-0.563 0.969-0.887 2.1-0.887 3.3 0 2.275 1.156 4.287 2.919 5.463-1.075-0.031-2.087-0.331-2.975-0.819 0 0.025 0 0.056 0 0.081 0 3.181 2.263 5.838 5.269 6.437-0.55 0.15-1.131 0.231-1.731 0.231-0.425 0-0.831-0.044-1.237-0.119 0.838 2.606 3.263 4.506 6.131 4.563-2.25 1.762-5.075 2.813-8.156 2.813-0.531 0-1.050-0.031-1.569-0.094 2.913 1.869 6.362 2.95 10.069 2.95 12.075 0 18.681-10.006 18.681-18.681 0-0.287-0.006-0.569-0.019-0.85 1.281-0.919 2.394-2.075 3.275-3.394z"></path>
</symbol>
<symbol id="icon-lanyrd" viewBox="0 0 32 32">
<title>lanyrd</title>
<path d="M29 0h-26c-1.65 0-3 1.35-3 3v26c0 1.65 1.35 3 3 3h26c1.65 0 3-1.35 3-3v-26c0-1.65-1.35-3-3-3zM25.7 24.025l-10.887 3.563c-2.488 0.813-2.738 0.681-3.863-2.8l-2.75-8.519c-0.656-2.019-2.656-7.456-2.994-8.5-0.625-1.938-0.625-2.044 3.031-3.231 2.862-0.938 2.981-0.906 4.019 2.325 0.838 2.6 1.375 4.7 2.238 7.356l2.344 7.25 7.488-2.45c1.475-0.488 1.969-0.462 2.387 1.356l0.3 1.375c0.35 1.594-0.456 2-1.313 2.275z"></path>
</symbol>
<symbol id="icon-github" viewBox="0 0 32 32">
<title>github</title>
<path d="M16 0.395c-8.836 0-16 7.163-16 16 0 7.069 4.585 13.067 10.942 15.182 0.8 0.148 1.094-0.347 1.094-0.77 0-0.381-0.015-1.642-0.022-2.979-4.452 0.968-5.391-1.888-5.391-1.888-0.728-1.849-1.776-2.341-1.776-2.341-1.452-0.993 0.11-0.973 0.11-0.973 1.606 0.113 2.452 1.649 2.452 1.649 1.427 2.446 3.743 1.739 4.656 1.33 0.143-1.034 0.558-1.74 1.016-2.14-3.554-0.404-7.29-1.777-7.29-7.907 0-1.747 0.625-3.174 1.649-4.295-0.166-0.403-0.714-2.030 0.155-4.234 0 0 1.344-0.43 4.401 1.64 1.276-0.355 2.645-0.532 4.005-0.539 1.359 0.006 2.729 0.184 4.008 0.539 3.054-2.070 4.395-1.64 4.395-1.64 0.871 2.204 0.323 3.831 0.157 4.234 1.026 1.12 1.647 2.548 1.647 4.295 0 6.145-3.743 7.498-7.306 7.895 0.574 0.497 1.085 1.47 1.085 2.963 0 2.141-0.019 3.864-0.019 4.391 0 0.426 0.288 0.925 1.099 0.768 6.354-2.118 10.933-8.113 10.933-15.18 0-8.837-7.164-16-16-16z"></path>
</symbol>
<symbol id="icon-linkedin" viewBox="0 0 32 32">
<title>linkedin</title>
<path d="M29 0h-26c-1.65 0-3 1.35-3 3v26c0 1.65 1.35 3 3 3h26c1.65 0 3-1.35 3-3v-26c0-1.65-1.35-3-3-3zM12 26h-4v-14h4v14zM10 10c-1.106 0-2-0.894-2-2s0.894-2 2-2c1.106 0 2 0.894 2 2s-0.894 2-2 2zM26 26h-4v-8c0-1.106-0.894-2-2-2s-2 0.894-2 2v8h-4v-14h4v2.481c0.825-1.131 2.087-2.481 3.5-2.481 2.488 0 4.5 2.238 4.5 5v9z"></path>
</symbol>
<symbol id="icon-html-five" viewBox="0 0 32 32">
<title>html-five</title>
<path d="M1.892 0l2.567 28.801 11.524 3.199 11.554-3.204 2.572-28.796h-28.216zM24.52 9.42h-13.517l0.322 3.617h12.874l-0.97 10.844-7.245 2.008-7.237-2.008-0.495-5.547h3.547l0.252 2.82 3.933 1.060 0.009-0.002 3.935-1.062 0.408-4.58h-12.242l-0.953-10.681h17.694l-0.316 3.532z"></path>
</symbol>
<symbol id="icon-html-five2" viewBox="0 0 32 32">
<title>html-five2</title>
<path d="M1.892 0l2.567 28.801 11.524 3.199 11.554-3.204 2.572-28.796h-28.216zM25.336 26.963l-9.288 2.574v0.015l-0.024-0.007-0.024 0.007v-0.015l-9.288-2.574-2.195-24.609h23.015l-2.195 24.609zM20.336 16.569l-0.408 4.58-3.944 1.065-3.933-1.060-0.252-2.82h-3.547l0.495 5.547 7.252 2.006 7.229-2.006 0.97-10.844h-12.874l-0.322-3.617h13.517l0.316-3.532h-17.694l0.953 10.681z"></path>
</symbol>
<symbol id="icon-github1" viewBox="0 0 24 28">
<title>github1</title>
<path d="M12 2c6.625 0 12 5.375 12 12 0 5.297-3.437 9.797-8.203 11.391-0.609 0.109-0.828-0.266-0.828-0.578 0-0.391 0.016-1.687 0.016-3.297 0-1.125-0.375-1.844-0.812-2.219 2.672-0.297 5.484-1.313 5.484-5.922 0-1.313-0.469-2.375-1.234-3.219 0.125-0.313 0.531-1.531-0.125-3.187-1-0.313-3.297 1.234-3.297 1.234-0.953-0.266-1.984-0.406-3-0.406s-2.047 0.141-3 0.406c0 0-2.297-1.547-3.297-1.234-0.656 1.656-0.25 2.875-0.125 3.187-0.766 0.844-1.234 1.906-1.234 3.219 0 4.594 2.797 5.625 5.469 5.922-0.344 0.313-0.656 0.844-0.766 1.609-0.688 0.313-2.438 0.844-3.484-1-0.656-1.141-1.844-1.234-1.844-1.234-1.172-0.016-0.078 0.734-0.078 0.734 0.781 0.359 1.328 1.75 1.328 1.75 0.703 2.141 4.047 1.422 4.047 1.422 0 1 0.016 1.937 0.016 2.234 0 0.313-0.219 0.688-0.828 0.578-4.766-1.594-8.203-6.094-8.203-11.391 0-6.625 5.375-12 12-12zM4.547 19.234c0.031-0.063-0.016-0.141-0.109-0.187-0.094-0.031-0.172-0.016-0.203 0.031-0.031 0.063 0.016 0.141 0.109 0.187 0.078 0.047 0.172 0.031 0.203-0.031zM5.031 19.766c0.063-0.047 0.047-0.156-0.031-0.25-0.078-0.078-0.187-0.109-0.25-0.047-0.063 0.047-0.047 0.156 0.031 0.25 0.078 0.078 0.187 0.109 0.25 0.047zM5.5 20.469c0.078-0.063 0.078-0.187 0-0.297-0.063-0.109-0.187-0.156-0.266-0.094-0.078 0.047-0.078 0.172 0 0.281s0.203 0.156 0.266 0.109zM6.156 21.125c0.063-0.063 0.031-0.203-0.063-0.297-0.109-0.109-0.25-0.125-0.313-0.047-0.078 0.063-0.047 0.203 0.063 0.297 0.109 0.109 0.25 0.125 0.313 0.047zM7.047 21.516c0.031-0.094-0.063-0.203-0.203-0.25-0.125-0.031-0.266 0.016-0.297 0.109s0.063 0.203 0.203 0.234c0.125 0.047 0.266 0 0.297-0.094zM8.031 21.594c0-0.109-0.125-0.187-0.266-0.172-0.141 0-0.25 0.078-0.25 0.172 0 0.109 0.109 0.187 0.266 0.172 0.141 0 0.25-0.078 0.25-0.172zM8.937 21.438c-0.016-0.094-0.141-0.156-0.281-0.141-0.141 0.031-0.234 0.125-0.219 0.234 0.016 0.094 0.141 0.156 0.281 0.125s0.234-0.125 0.219-0.219z"></path>
</symbol>
<symbol id="icon-github2" viewBox="0 0 32 32">
<title>github2</title>
<path d="M16 0.396c-8.84 0-16 7.164-16 16 0 7.071 4.584 13.067 10.94 15.18 0.8 0.151 1.093-0.344 1.093-0.769 0-0.38-0.013-1.387-0.020-2.72-4.451 0.965-5.389-2.147-5.389-2.147-0.728-1.847-1.78-2.34-1.78-2.34-1.449-0.992 0.112-0.972 0.112-0.972 1.607 0.112 2.451 1.648 2.451 1.648 1.427 2.447 3.745 1.74 4.66 1.331 0.144-1.035 0.556-1.74 1.013-2.14-3.553-0.4-7.288-1.776-7.288-7.907 0-1.747 0.62-3.173 1.647-4.293-0.18-0.404-0.72-2.031 0.14-4.235 0 0 1.34-0.429 4.4 1.64 1.28-0.356 2.64-0.532 4-0.54 1.36 0.008 2.72 0.184 4 0.54 3.040-2.069 4.38-1.64 4.38-1.64 0.86 2.204 0.32 3.831 0.16 4.235 1.020 1.12 1.64 2.547 1.64 4.293 0 6.147-3.74 7.5-7.3 7.893 0.56 0.48 1.080 1.461 1.080 2.96 0 2.141-0.020 3.861-0.020 4.381 0 0.42 0.28 0.92 1.1 0.76 6.401-2.099 10.981-8.099 10.981-15.159 0-8.836-7.164-16-16-16z"></path>
</symbol>
<symbol id="icon-camera_front" viewBox="0 0 24 24">
<title>camera_front</title>
<path d="M6.984 2.016v10.5c0-1.688 3.328-2.531 5.016-2.531s5.016 0.844 5.016 2.531v-10.5h-10.031zM17.016 0c1.078 0 1.969 0.938 1.969 2.016v13.969c0 1.078-0.891 2.016-1.969 2.016h-7.031l3 3-3 3v-2.016h-4.969v-1.969h4.969v-2.016h-3c-1.078 0-1.969-0.938-1.969-2.016v-13.969c0-1.078 0.891-2.016 1.969-2.016h10.031zM12 8.016c-1.078 0-1.969-0.938-1.969-2.016s0.891-2.016 1.969-2.016 2.016 0.938 2.016 2.016-0.938 2.016-2.016 2.016zM14.016 20.016h4.969v1.969h-4.969v-1.969z"></path>
</symbol>
</defs>
</svg>
